<svg width="17" height="18" viewBox="0 0 17 18" version="1.1" xmlns="http://www.w3.org/2000/svg" xmlns:xlink="http://www.w3.org/1999/xlink" xmlns:figma="http://www.figma.com/figma/ns">
<title>instagram</title>
<desc>Created using Figma</desc>
<g id="Canvas" transform="translate(339 -1846)" figma:type="canvas">
<g id="instagram" figma:type="frame">
<g id="Instagram" figma:type="frame">
<g id="Shape" figma:type="vector-operation">
<use xlink:href="#path0_fill" transform="translate(-339 1846)"/>
</g>
</g>
</g>
</g>
<defs>
<path id="path0_fill" fill-rule="evenodd" d="M 16.9489 5.28931C 16.9348 4.54272 16.8011 3.80396 16.5538 3.10474C 16.3403 2.50415 16.0058 1.96008 15.5734 1.51062C 15.1488 1.05273 14.635 0.698486 14.0678 0.472412C 13.4073 0.210571 12.7097 0.0690918 12.0045 0.0541992C 11.0979 0.010376 10.8085 0 8.5 0C 6.19153 0 5.9021 0.010376 4.99545 0.0541992C 4.29031 0.0690918 3.59268 0.210571 2.93219 0.472412C 2.36502 0.698486 1.85123 1.05273 1.42664 1.51062C 0.994232 1.96008 0.659668 2.50415 0.446228 3.10474C 0.198853 3.80396 0.0652466 4.54272 0.0511475 5.28931C 0.00979614 6.24927 0 6.55579 0 9C 0 11.4442 0.00979614 11.7507 0.0511475 12.7107C 0.0652466 13.4573 0.198853 14.196 0.446228 14.8953C 0.659668 15.4958 0.994232 16.0399 1.42664 16.4895C 1.8512 16.9473 2.36502 17.3015 2.93219 17.5276C 3.59268 17.7894 4.29031 17.9309 4.99545 17.9458C 5.9021 17.9897 6.19153 18 8.5 18C 10.8085 18 11.0979 17.9897 12.0045 17.9458C 12.7097 17.9309 13.4073 17.7894 14.0678 17.5276C 15.2096 17.0599 16.1122 16.1042 16.5538 14.8954C 16.8011 14.196 16.9347 13.4573 16.9489 12.7107C 16.9902 11.7507 17 11.4442 17 9C 17 6.55579 16.9902 6.24927 16.9489 5.28931ZM 15.4189 12.6367C 15.4126 13.2074 15.3135 13.7727 15.1262 14.3079C 14.8403 15.0928 14.2544 15.7131 13.513 16.016C 13.0076 16.2142 12.4737 16.3191 11.9348 16.3259C 11.0385 16.3691 10.7697 16.3783 8.5 16.3783C 6.23026 16.3783 5.96146 16.3691 5.06528 16.3259C 4.52628 16.3191 3.9924 16.2142 3.48697 16.016C 3.11777 15.8717 2.78378 15.6416 2.50961 15.3428C 2.22729 15.0524 2.01001 14.6989 1.87378 14.3079C 1.68646 13.7727 1.58743 13.2074 1.58105 12.6367C 1.54019 11.6876 1.53156 11.4031 1.53156 9C 1.53156 6.5968 1.54019 6.31226 1.58109 5.36316C 1.58746 4.79248 1.68646 4.22717 1.87378 3.69202C 2.01001 3.30115 2.22729 2.94751 2.50961 2.65723C 2.78378 2.35828 3.11777 2.12817 3.48697 1.98389C 3.9924 1.78564 4.52628 1.68079 5.06528 1.67395C 5.96158 1.63074 6.23038 1.62158 8.5 1.62158C 10.7697 1.62158 11.0384 1.63074 11.9348 1.67407C 12.4737 1.68079 13.0076 1.78564 13.513 1.98401C 13.8823 2.12817 14.2162 2.35828 14.4904 2.65723C 14.7727 2.94751 14.99 3.30115 15.1262 3.69202C 15.3135 4.22717 15.4126 4.79248 15.4189 5.36316C 15.4598 6.31213 15.4685 6.5968 15.4685 9C 15.4685 11.4031 15.4598 11.6876 15.4189 12.6367ZM 4.13513 9C 4.13513 6.44763 6.08936 4.37842 8.5 4.37842C 10.9107 4.37842 12.8649 6.44763 12.8649 9C 12.8649 11.5525 10.9107 13.6217 8.5 13.6217C 6.08936 13.6217 4.13513 11.5525 4.13513 9ZM 8.5 12C 6.93518 12 5.66666 10.6569 5.66666 9C 5.66666 7.34314 6.93518 6 8.5 6C 10.0648 6 11.3333 7.34314 11.3333 9C 11.3333 9.79565 11.0348 10.5587 10.5034 11.1213C 9.97211 11.684 9.25143 12 8.5 12ZM 13.0373 5.27588C 13.6007 5.27588 14.0573 4.79236 14.0573 4.1958C 14.0573 3.59937 13.6007 3.11584 13.0373 3.11584C 12.474 3.11584 12.0173 3.59937 12.0173 4.1958C 12.0173 4.79236 12.474 5.27588 13.0373 5.27588Z"/>
</defs>
</svg>
