<svg width="22" height="12" viewBox="0 0 22 12" version="1.1" xmlns="http://www.w3.org/2000/svg" xmlns:xlink="http://www.w3.org/1999/xlink" xmlns:figma="http://www.figma.com/figma/ns">
<title>vk</title>
<desc>Created using Figma</desc>
<g id="Canvas" transform="translate(377 -1849)" figma:type="canvas">
<g id="vk" figma:type="frame">
<g id="VK" figma:type="frame">
<g id="Shape" figma:type="vector">
<use xlink:href="#path0_fill" transform="translate(-377 1849.28)"/>
</g>
</g>
</g>
</g>
<defs>
<path id="path0_fill" fill-rule="evenodd" d="M 19.5823 8.015C 19.5823 8.015 21.361 9.612 21.801 10.351C 21.8131 10.367 21.8186 10.379 21.8208 10.386C 22.0001 10.659 22.0441 10.873 21.9561 11.031C 21.8076 11.292 21.3049 11.423 21.1344 11.434C 21.1344 11.434 18.0786 11.434 17.9906 11.434C 17.7717 11.434 17.3163 11.382 16.7619 11.034C 16.3384 10.765 15.9171 10.322 15.509 9.889C 14.8996 9.246 14.3727 8.688 13.8392 8.688C 13.771 8.688 13.705 8.698 13.6412 8.718C 13.2375 8.834 12.7249 9.357 12.7249 10.75C 12.7249 11.186 12.3465 11.434 12.0814 11.434C 12.0814 11.434 10.7086 11.434 10.6415 11.434C 10.1509 11.434 7.5967 11.278 5.3318 9.107C 2.5565 6.449 0.0638991 1.117 0.0396991 1.07C -0.115401 0.725 0.210199 0.537 0.562199 0.537L 3.7368 0.537C 4.1625 0.537 4.3011 0.771 4.3979 0.981C 4.5101 1.222 4.9259 2.186 5.6079 3.269C 6.7123 5.031 7.391 5.748 7.9333 5.748C 8.0356 5.748 8.1324 5.725 8.2237 5.678C 8.9321 5.324 8.8001 3.024 8.7671 2.55C 8.7671 2.458 8.766 1.523 8.403 1.071C 8.1434 0.747 7.7012 0.621 7.4339 0.575C 7.5054 0.481 7.6572 0.337 7.8519 0.252C 8.337 0.032 9.2137 0 10.0838 0L 10.5667 0C 11.5105 0.012 11.7547 0.067 12.0979 0.146C 12.7887 0.296 12.8019 0.703 12.7414 2.089C 12.7238 2.485 12.7051 2.931 12.7051 3.456C 12.7051 3.568 12.6996 3.693 12.6996 3.82C 12.6787 4.531 12.6512 5.332 13.2034 5.661C 13.2738 5.701 13.3563 5.723 13.4421 5.723C 13.6335 5.723 14.2066 5.723 15.7609 3.298C 16.4429 2.227 16.9709 0.964 17.0072 0.869C 17.038 0.816 17.1304 0.667 17.2426 0.607C 17.3284 0.559 17.4428 0.551 17.5022 0.551L 21.2367 0.551C 21.6437 0.551 21.9198 0.607 21.9737 0.747C 22.0639 0.974 21.9561 1.667 20.2511 3.763C 19.964 4.112 19.7121 4.414 19.491 4.678C 17.9455 6.522 17.9455 6.615 19.5823 8.015Z"/>
</defs>
</svg>
